<?xml version="1.0" standalone="no"?>
<!DOCTYPE svg PUBLIC "-//W3C//DTD SVG 20010904//EN"
 "http://www.w3.org/TR/2001/REC-SVG-20010904/DTD/svg10.dtd">
<svg version="1.0" xmlns="http://www.w3.org/2000/svg"
 width="700.000000pt" height="700.000000pt" viewBox="0 0 700.000000 700.000000"
 preserveAspectRatio="xMidYMid meet">
<metadata>
Created by potrace 1.14, written by Peter Selinger 2001-2017
</metadata>
<g transform="translate(0.000000,700.000000) scale(0.100000,-0.100000)"
fill="#000000" stroke="none">
<path d="M3478 6565 c-1 -1 -23 -5 -48 -8 -167 -22 -310 -118 -404 -272 -94
-152 -346 -587 -346 -596 0 -5 -3 -9 -7 -9 -5 0 -13 -10 -19 -23 -6 -12 -56
-100 -112 -194 -56 -95 -102 -177 -102 -182 0 -5 -4 -11 -8 -13 -4 -1 -29 -39
-54 -83 -25 -44 -179 -307 -342 -584 -163 -277 -296 -508 -296 -512 0 -5 -3
-9 -7 -9 -5 0 -13 -10 -19 -23 -10 -21 -444 -766 -488 -837 -12 -19 -28 -46
-36 -60 -7 -14 -70 -119 -138 -235 -68 -115 -134 -228 -147 -250 -53 -92 -282
-482 -296 -505 -9 -14 -119 -200 -244 -414 -125 -214 -236 -403 -246 -420 -11
-17 -26 -44 -34 -61 -9 -16 -20 -37 -25 -45 -10 -14 -30 -64 -36 -85 -26 -103
-27 -219 -4 -305 55 -204 232 -361 442 -392 66 -10 706 -13 3053 -12 1634 1
2991 4 3016 7 122 16 272 102 346 199 89 115 125 227 118 368 -6 129 -28 186
-150 385 -36 59 -65 109 -65 111 0 3 -21 40 -46 81 -25 42 -54 90 -64 107 -9
17 -54 94 -100 171 -88 149 -90 153 -167 285 -27 47 -112 191 -188 320 -76
129 -143 244 -149 255 -10 18 -63 107 -265 450 -42 71 -80 137 -86 147 -5 10
-45 77 -87 149 -43 71 -78 135 -78 140 0 5 -4 9 -9 9 -5 0 -11 8 -15 18 -3 9
-10 24 -15 32 -12 18 -131 220 -159 270 -11 19 -156 267 -322 550 -433 737
-600 1021 -620 1055 -132 229 -457 778 -475 801 -87 114 -235 199 -368 210
-34 3 -67 7 -74 9 -6 2 -13 2 -15 0z m167 -1788 c67 -34 117 -85 151 -155 l29
-57 0 -845 0 -845 -27 -55 c-69 -141 -200 -212 -347 -189 -111 17 -201 86
-250 189 l-26 55 0 845 c0 845 0 845 22 892 39 85 123 160 213 189 14 5 61 7
105 5 63 -2 91 -8 130 -29z m-10 -2612 c260 -87 375 -373 249 -621 -47 -94
-153 -181 -253 -211 -292 -85 -577 133 -566 433 10 243 213 430 455 419 36 -2
88 -11 115 -20z"/>
</g>
</svg>
